<svg xmlns="http://www.w3.org/2000/svg" xmlns:xlink="http://www.w3.org/1999/xlink" version="1.1" style="" xml:space="preserve" width="446.45502665526055" height="439.0476191917876"><rect id="backgroundrect" width="100%" height="100%" x="0" y="0" fill="none" stroke="none"/>
















<g class="currentLayer" style=""><title>Layer 1</title><path d="M14.702194722142506,12.425859336066983 l-1.8865249553101442,1.369913820760847 l-0.3820987389922882,1.1964489649183243 c-2.7784222737751185,-1.623086655919085 -5.105391584848767,-3.8915445274727536 -6.770343305971133,-6.600103616521147 l1.2273095562158005,-0.3724908996663401 l1.4052486756312768,-1.8390884505396394 L3.8018724451487778,0 L1.679663223121286,0.9799593613668288 L0,4.956577766395645 l0.04318376267029138,0.1283913106235998 c1.2025902297278241,3.5739321325372453 3.2803146719014484,6.868837556576395 6.008547705863933,9.528469409851432 c2.728233033962485,2.6596318532750383 6.108125559530073,4.68511209632713 9.774241865484761,5.857463300056982 l0.13170297027602187,0.04209791074018486 l4.07923930086306,-1.6374282384887429 l1.005185891681127,-2.0687976761196283 L14.702194722142506,12.425859336066983 zM7.368060623580208,6.169856139431425 l-0.6979456798670032,0.9133734422934195 L2.5360327646500993,1.3941579246286013 l1.0177957505373418,-0.4699551240682976 L7.368060623580208,6.169856139431425 zM15.92880373064407,19.733334683345277 c-3.5041396665992615,-1.142838763407938 -6.733514511851397,-3.0901720157233252 -9.346307290332582,-5.637266348630338 C3.9697036618303043,11.54897400180793 1.972141893814047,8.400801504195751 0.7998753722880731,4.984724341710926 l1.2591844772134548,-2.9811467196580725 l3.9985261963587964,5.502533521904509 l-1.512232319419322,0.4589794231221314 l0.2298797285136948,0.39488132959651967 c1.821524135253703,3.1294894155571478 4.481203571466131,5.7222914452933065 7.691413432821718,7.498013515703745 l0.4051167353171249,0.22409942287417065 l0.4707680639653545,-1.4742073701959748 l5.644463050951952,3.8979348244680767 L15.92880373064407,19.733334683345277 zM19.612033416475054,18.040784035660238 l-5.835862694305213,-4.0301310447530145 l0.9369325286657418,-0.6803958968761278 l5.381007071277463,3.7183235760957007 L19.612033416475054,18.040784035660238 z" id="svg_1" class="selected" fill="#ffffff" fill-opacity="1" stroke="#ffffff" stroke-opacity="1"/><g id="svg_2">
</g><g id="svg_3">
</g><g id="svg_4">
</g><g id="svg_5">
</g><g id="svg_6">
</g><g id="svg_7">
</g><g id="svg_8">
</g><g id="svg_9">
</g><g id="svg_10">
</g><g id="svg_11">
</g><g id="svg_12">
</g><g id="svg_13">
</g><g id="svg_14">
</g><g id="svg_15">
</g><g id="svg_16">
</g></g></svg>